<svg id="my-svg" width="100%" xmlns="http://www.w3.org/2000/svg" xmlns:xlink="http://www.w3.org/1999/xlink" style="max-width: 1319.95px; background-color: white;" viewBox="-8 -8 1319.953125 372.25" role="graphics-document document" aria-roledescription="flowchart-v2"><style>#my-svg{font-family:"trebuchet ms",verdana,arial,sans-serif;font-size:16px;fill:#333;}#my-svg .error-icon{fill:#552222;}#my-svg .error-text{fill:#552222;stroke:#552222;}#my-svg .edge-thickness-normal{stroke-width:2px;}#my-svg .edge-thickness-thick{stroke-width:3.5px;}#my-svg .edge-pattern-solid{stroke-dasharray:0;}#my-svg .edge-pattern-dashed{stroke-dasharray:3;}#my-svg .edge-pattern-dotted{stroke-dasharray:2;}#my-svg .marker{fill:#333333;stroke:#333333;}#my-svg .marker.cross{stroke:#333333;}#my-svg svg{font-family:"trebuchet ms",verdana,arial,sans-serif;font-size:16px;}#my-svg .label{font-family:"trebuchet ms",verdana,arial,sans-serif;color:#333;}#my-svg .cluster-label text{fill:#333;}#my-svg .cluster-label span,#my-svg p{color:#333;}#my-svg .label text,#my-svg span,#my-svg p{fill:#333;color:#333;}#my-svg .node rect,#my-svg .node circle,#my-svg .node ellipse,#my-svg .node polygon,#my-svg .node path{fill:#ECECFF;stroke:#9370DB;stroke-width:1px;}#my-svg .flowchart-label text{text-anchor:middle;}#my-svg .node .katex path{fill:#000;stroke:#000;stroke-width:1px;}#my-svg .node .label{text-align:center;}#my-svg .node.clickable{cursor:pointer;}#my-svg .arrowheadPath{fill:#333333;}#my-svg .edgePath .path{stroke:#333333;stroke-width:2.0px;}#my-svg .flowchart-link{stroke:#333333;fill:none;}#my-svg .edgeLabel{background-color:#e8e8e8;text-align:center;}#my-svg .edgeLabel rect{opacity:0.5;background-color:#e8e8e8;fill:#e8e8e8;}#my-svg .labelBkg{background-color:rgba(232, 232, 232, 0.5);}#my-svg .cluster rect{fill:#ffffde;stroke:#aaaa33;stroke-width:1px;}#my-svg .cluster text{fill:#333;}#my-svg .cluster span,#my-svg p{color:#333;}#my-svg div.mermaidTooltip{position:absolute;text-align:center;max-width:200px;padding:2px;font-family:"trebuchet ms",verdana,arial,sans-serif;font-size:12px;background:hsl(80, 100%, 96.2745098039%);border:1px solid #aaaa33;border-radius:2px;pointer-events:none;z-index:100;}#my-svg .flowchartTitleText{text-anchor:middle;font-size:18px;fill:#333;}#my-svg :root{--mermaid-font-family:"trebuchet ms",verdana,arial,sans-serif;}#my-svg .config&gt;*{fill:rgb(232, 242, 255)!important;stroke:rgb(91, 142, 199)!important;color:rgb(17, 17, 17)!important;rx:6!important;ry:6!important;}#my-svg .config span{fill:rgb(232, 242, 255)!important;stroke:rgb(91, 142, 199)!important;color:rgb(17, 17, 17)!important;rx:6!important;ry:6!important;}#my-svg .config tspan{fill:rgb(17, 17, 17)!important;}#my-svg .tirrexNode&gt;*{fill:rgb(241, 234, 255)!important;stroke:rgb(139, 111, 198)!important;color:rgb(17, 17, 17)!important;rx:6!important;ry:6!important;}#my-svg .tirrexNode span{fill:rgb(241, 234, 255)!important;stroke:rgb(139, 111, 198)!important;color:rgb(17, 17, 17)!important;rx:6!important;ry:6!important;}#my-svg .tirrexNode tspan{fill:rgb(17, 17, 17)!important;}#my-svg .launch&gt;*{fill:rgb(234, 247, 234)!important;stroke:rgb(92, 159, 92)!important;color:rgb(17, 17, 17)!important;rx:6!important;ry:6!important;}#my-svg .launch span{fill:rgb(234, 247, 234)!important;stroke:rgb(92, 159, 92)!important;color:rgb(17, 17, 17)!important;rx:6!important;ry:6!important;}#my-svg .launch tspan{fill:rgb(17, 17, 17)!important;}#my-svg .sim&gt;*{fill:rgb(255, 246, 216)!important;stroke:rgb(201, 162, 39)!important;color:rgb(17, 17, 17)!important;rx:6!important;ry:6!important;}#my-svg .sim span{fill:rgb(255, 246, 216)!important;stroke:rgb(201, 162, 39)!important;color:rgb(17, 17, 17)!important;rx:6!important;ry:6!important;}#my-svg .sim tspan{fill:rgb(17, 17, 17)!important;}</style><g><marker id="my-svg_flowchart-pointEnd" class="marker flowchart" viewBox="0 0 10 10" refX="6" refY="5" markerUnits="userSpaceOnUse" markerWidth="12" markerHeight="12" orient="auto"><path d="M 0 0 L 10 5 L 0 10 z" class="arrowMarkerPath" style="stroke-width: 1; stroke-dasharray: 1, 0;"/></marker><marker id="my-svg_flowchart-pointStart" class="marker flowchart" viewBox="0 0 10 10" refX="4.5" refY="5" markerUnits="userSpaceOnUse" markerWidth="12" markerHeight="12" orient="auto"><path d="M 0 5 L 10 10 L 10 0 z" class="arrowMarkerPath" style="stroke-width: 1; stroke-dasharray: 1, 0;"/></marker><marker id="my-svg_flowchart-circleEnd" class="marker flowchart" viewBox="0 0 10 10" refX="11" refY="5" markerUnits="userSpaceOnUse" markerWidth="11" markerHeight="11" orient="auto"><circle cx="5" cy="5" r="5" class="arrowMarkerPath" style="stroke-width: 1; stroke-dasharray: 1, 0;"/></marker><marker id="my-svg_flowchart-circleStart" class="marker flowchart" viewBox="0 0 10 10" refX="-1" refY="5" markerUnits="userSpaceOnUse" markerWidth="11" markerHeight="11" orient="auto"><circle cx="5" cy="5" r="5" class="arrowMarkerPath" style="stroke-width: 1; stroke-dasharray: 1, 0;"/></marker><marker id="my-svg_flowchart-crossEnd" class="marker cross flowchart" viewBox="0 0 11 11" refX="12" refY="5.2" markerUnits="userSpaceOnUse" markerWidth="11" markerHeight="11" orient="auto"><path d="M 1,1 l 9,9 M 10,1 l -9,9" class="arrowMarkerPath" style="stroke-width: 2; stroke-dasharray: 1, 0;"/></marker><marker id="my-svg_flowchart-crossStart" class="marker cross flowchart" viewBox="0 0 11 11" refX="-1" refY="5.2" markerUnits="userSpaceOnUse" markerWidth="11" markerHeight="11" orient="auto"><path d="M 1,1 l 9,9 M 10,1 l -9,9" class="arrowMarkerPath" style="stroke-width: 2; stroke-dasharray: 1, 0;"/></marker><g class="root"><g class="clusters"><g class="cluster default flowchart-label" id="backend"><rect style="fill:#fffaf0;stroke:#d4b24f;rx:6;ry:6;" rx="0" ry="0" x="818.1875" y="32.75" width="485.765625" height="269.5"/><g class="cluster-label" transform="translate(949.46875, 32.75)"><foreignObject width="223.203125" height="18"><div xmlns="http://www.w3.org/1999/xhtml" style="display: inline-block; white-space: nowrap;"><span class="nodeLabel">Gazebo Classic or Gazebo Sim</span></div></foreignObject></g></g><g class="cluster default flowchart-label" id="romea"><rect style="fill:#f0fbff;stroke:#65a9c7;rx:6;ry:6;" rx="0" ry="0" x="521.75" y="16.75" width="246.4375" height="285.5"/><g class="cluster-label" transform="translate(528.4765625, 16.75)"><foreignObject width="232.984375" height="18"><div xmlns="http://www.w3.org/1999/xhtml" style="display: inline-block; white-space: nowrap;"><span class="nodeLabel">ROMEA simulation meta-bringup</span></div></foreignObject></g></g><g class="cluster default flowchart-label" id="tirrex"><rect style="fill:#fff3e6;stroke:#d89b55;rx:6;ry:6;" rx="0" ry="0" x="256.421875" y="4.5" width="215.328125" height="321.5"/><g class="cluster-label" transform="translate(316.9609375, 4.5)"><foreignObject width="94.25" height="18"><div xmlns="http://www.w3.org/1999/xhtml" style="display: inline-block; white-space: nowrap;"><span class="nodeLabel">TIRREX core</span></div></foreignObject></g></g><g class="cluster default flowchart-label" id="configuration"><rect style="fill:#f6faff;stroke:#9abbe3;rx:6;ry:6;" rx="0" ry="0" x="0" y="0" width="206.421875" height="356.25"/><g class="cluster-label" transform="translate(33.8359375, 0)"><foreignObject width="138.75" height="18"><div xmlns="http://www.w3.org/1999/xhtml" style="display: inline-block; white-space: nowrap;"><span class="nodeLabel">Demo configuration</span></div></foreignObject></g></g></g><g class="edgePaths"><path d="M130.727,142.616L143.342,144.388C155.958,146.16,181.19,149.705,197.973,151.478C214.755,153.25,223.089,153.25,231.422,153.25C239.755,153.25,248.089,153.25,266.171,164.689C284.254,176.128,312.086,199.006,326.003,210.445L339.919,221.884" id="L-mode-simulator_launch-0" class="edge-thickness-normal edge-pattern-solid flowchart-link LS-mode LE-simulator_launch" style="fill:none;" marker-end="url(#my-svg_flowchart-pointEnd)"/><path d="M165.844,230.549L172.607,231.499C179.37,232.449,192.896,234.35,203.826,235.3C214.755,236.25,223.089,236.25,231.422,236.25C239.755,236.25,248.089,236.25,256.653,236.475C265.217,236.699,274.013,237.149,278.411,237.373L282.808,237.598" id="L-simulation_yaml-simulator_launch-0" class="edge-thickness-normal edge-pattern-solid flowchart-link LS-simulation_yaml LE-simulator_launch" style="fill:none;" marker-end="url(#my-svg_flowchart-pointEnd)"/><path d="M181.422,304.75L185.589,304.75C189.755,304.75,198.089,304.75,206.422,304.75C214.755,304.75,223.089,304.75,231.422,304.75C239.755,304.75,248.089,304.75,264.737,297.446C281.386,290.142,306.35,275.534,318.832,268.231L331.314,260.927" id="L-anchor-simulator_launch-0" class="edge-thickness-normal edge-pattern-solid flowchart-link LS-anchor LE-simulator_launch" style="fill:none;" marker-end="url(#my-svg_flowchart-pointEnd)"/><path d="M440.07,241.75L445.35,241.75C450.63,241.75,461.19,241.75,470.637,241.75C480.083,241.75,488.417,241.75,496.75,241.75C505.083,241.75,513.417,241.75,520.867,241.75C528.317,241.75,534.883,241.75,538.167,241.75L541.45,241.75" id="L-simulator_launch-world_launch-0" class="edge-thickness-normal edge-pattern-solid flowchart-link LS-simulator_launch LE-world_launch" style="fill:none;" marker-end="url(#my-svg_flowchart-pointEnd)"/><path d="M743.188,241.75L747.354,241.75C751.521,241.75,759.854,241.75,768.188,241.75C776.521,241.75,784.854,241.75,793.188,241.75C801.521,241.75,809.854,241.75,817.304,241.75C824.754,241.75,831.321,241.75,834.604,241.75L837.888,241.75" id="L-world_launch-world-0" class="edge-thickness-normal edge-pattern-solid flowchart-link LS-world_launch LE-world" style="fill:none;" marker-end="url(#my-svg_flowchart-pointEnd)"/><path d="M122.454,122.25L136.448,110.25C150.443,98.25,178.432,74.25,196.594,62.25C214.755,50.25,223.089,50.25,231.422,50.25C239.755,50.25,248.089,50.25,258.377,51.785C268.665,53.32,280.908,56.391,287.029,57.926L293.15,59.461" id="L-mode-robot_launch-0" class="edge-thickness-normal edge-pattern-solid flowchart-link LS-mode LE-robot_launch" style="fill:none;" marker-end="url(#my-svg_flowchart-pointEnd)"/><path d="M176.977,66.113L181.884,66.803C186.792,67.492,196.607,68.871,205.681,69.561C214.755,70.25,223.089,70.25,231.422,70.25C239.755,70.25,248.089,70.25,255.54,70.464C262.992,70.677,269.563,71.104,272.848,71.318L276.133,71.532" id="L-robot_config-robot_launch-0" class="edge-thickness-normal edge-pattern-solid flowchart-link LS-robot_config LE-robot_launch" style="fill:none;" marker-end="url(#my-svg_flowchart-pointEnd)"/><path d="M119.745,205.25L134.191,190.833C148.637,176.417,177.529,147.583,196.142,133.167C214.755,118.75,223.089,118.75,231.422,118.75C239.755,118.75,248.089,118.75,262.241,114.901C276.393,111.052,296.364,103.354,306.349,99.505L316.334,95.656" id="L-simulation_yaml-robot_launch-0" class="edge-thickness-normal edge-pattern-solid flowchart-link LS-simulation_yaml LE-robot_launch" style="fill:none;" marker-end="url(#my-svg_flowchart-pointEnd)"/><path d="M446.75,77.25L450.917,77.25C455.083,77.25,463.417,77.25,471.75,77.25C480.083,77.25,488.417,77.25,496.75,77.25C505.083,77.25,513.417,77.25,523.088,77.25C532.759,77.25,543.769,77.25,549.273,77.25L554.778,77.25" id="L-robot_launch-entity_launch-0" class="edge-thickness-normal edge-pattern-solid flowchart-link LS-robot_launch LE-entity_launch" style="fill:none;" marker-end="url(#my-svg_flowchart-pointEnd)"/><path d="M729.859,77.25L736.247,77.25C742.635,77.25,755.411,77.25,765.966,77.25C776.521,77.25,784.854,77.25,793.188,77.25C801.521,77.25,809.854,77.25,833.078,77.25C856.302,77.25,894.417,77.25,932.531,77.25C970.646,77.25,1008.76,77.25,1043.788,91.414C1078.816,105.578,1110.756,133.906,1126.726,148.069L1142.697,162.233" id="L-entity_launch-entities-0" class="edge-thickness-normal edge-pattern-solid flowchart-link LS-entity_launch LE-entities" style="fill:none;" marker-end="url(#my-svg_flowchart-pointEnd)"/><path d="M1021.875,241.75L1026.042,241.75C1030.208,241.75,1038.542,241.75,1052.492,237.906C1066.442,234.063,1086.008,226.375,1095.792,222.532L1105.575,218.688" id="L-world-entities-0" class="edge-thickness-normal edge-pattern-solid flowchart-link LS-world LE-entities" style="fill:none;" marker-end="url(#my-svg_flowchart-pointEnd)"/></g><g class="edgeLabels"><g class="edgeLabel"><g class="label" transform="translate(0, 0)"><foreignObject width="0" height="0"><div xmlns="http://www.w3.org/1999/xhtml" style="display: inline-block; white-space: nowrap;"><span class="edgeLabel"></span></div></foreignObject></g></g><g class="edgeLabel"><g class="label" transform="translate(0, 0)"><foreignObject width="0" height="0"><div xmlns="http://www.w3.org/1999/xhtml" style="display: inline-block; white-space: nowrap;"><span class="edgeLabel"></span></div></foreignObject></g></g><g class="edgeLabel"><g class="label" transform="translate(0, 0)"><foreignObject width="0" height="0"><div xmlns="http://www.w3.org/1999/xhtml" style="display: inline-block; white-space: nowrap;"><span class="edgeLabel"></span></div></foreignObject></g></g><g class="edgeLabel"><g class="label" transform="translate(0, 0)"><foreignObject width="0" height="0"><div xmlns="http://www.w3.org/1999/xhtml" style="display: inline-block; white-space: nowrap;"><span class="edgeLabel"></span></div></foreignObject></g></g><g class="edgeLabel"><g class="label" transform="translate(0, 0)"><foreignObject width="0" height="0"><div xmlns="http://www.w3.org/1999/xhtml" style="display: inline-block; white-space: nowrap;"><span class="edgeLabel"></span></div></foreignObject></g></g><g class="edgeLabel"><g class="label" transform="translate(0, 0)"><foreignObject width="0" height="0"><div xmlns="http://www.w3.org/1999/xhtml" style="display: inline-block; white-space: nowrap;"><span class="edgeLabel"></span></div></foreignObject></g></g><g class="edgeLabel"><g class="label" transform="translate(0, 0)"><foreignObject width="0" height="0"><div xmlns="http://www.w3.org/1999/xhtml" style="display: inline-block; white-space: nowrap;"><span class="edgeLabel"></span></div></foreignObject></g></g><g class="edgeLabel"><g class="label" transform="translate(0, 0)"><foreignObject width="0" height="0"><div xmlns="http://www.w3.org/1999/xhtml" style="display: inline-block; white-space: nowrap;"><span class="edgeLabel"></span></div></foreignObject></g></g><g class="edgeLabel"><g class="label" transform="translate(0, 0)"><foreignObject width="0" height="0"><div xmlns="http://www.w3.org/1999/xhtml" style="display: inline-block; white-space: nowrap;"><span class="edgeLabel"></span></div></foreignObject></g></g><g class="edgeLabel"><g class="label" transform="translate(0, 0)"><foreignObject width="0" height="0"><div xmlns="http://www.w3.org/1999/xhtml" style="display: inline-block; white-space: nowrap;"><span class="edgeLabel"></span></div></foreignObject></g></g><g class="edgeLabel"><g class="label" transform="translate(0, 0)"><foreignObject width="0" height="0"><div xmlns="http://www.w3.org/1999/xhtml" style="display: inline-block; white-space: nowrap;"><span class="edgeLabel"></span></div></foreignObject></g></g></g><g class="nodes"><g class="node default sim flowchart-label" id="flowchart-world-8" data-node="true" data-id="world" transform="translate(932.53125, 241.75)"><rect class="basic label-container" style="" rx="0" ry="0" x="-89.34375" y="-25.5" width="178.6875" height="51"/><g class="label" style="" transform="translate(-81.84375, -18)"><rect/><foreignObject width="163.6875" height="36"><div xmlns="http://www.w3.org/1999/xhtml" style="display: inline-block; white-space: nowrap;"><span class="nodeLabel">Load world<br />and geographic anchor</span></div></foreignObject></g></g><g class="node default sim flowchart-label" id="flowchart-entities-9" data-node="true" data-id="entities" transform="translate(1175.4140625, 191.25)"><rect class="basic label-container" style="" rx="0" ry="0" x="-103.5390625" y="-25.5" width="207.078125" height="51"/><g class="label" style="" transform="translate(-96.0390625, -18)"><rect/><foreignObject width="192.078125" height="36"><div xmlns="http://www.w3.org/1999/xhtml" style="display: inline-block; white-space: nowrap;"><span class="nodeLabel">Generate simulation URDF<br />and spawn entities</span></div></foreignObject></g></g><g class="node default launch flowchart-label" id="flowchart-world_launch-6" data-node="true" data-id="world_launch" transform="translate(644.96875, 241.75)"><rect class="basic label-container" style="" rx="0" ry="0" x="-98.21875" y="-25.5" width="196.4375" height="51"/><g class="label" style="" transform="translate(-90.71875, -18)"><rect/><foreignObject width="181.4375" height="36"><div xmlns="http://www.w3.org/1999/xhtml" style="display: inline-block; white-space: nowrap;"><span class="nodeLabel">simulator.launch.py<br />backend simulator launch</span></div></foreignObject></g></g><g class="node default launch flowchart-label" id="flowchart-entity_launch-7" data-node="true" data-id="entity_launch" transform="translate(644.96875, 77.25)"><rect class="basic label-container" style="" rx="0" ry="0" x="-84.890625" y="-25.5" width="169.78125" height="51"/><g class="label" style="" transform="translate(-77.390625, -18)"><rect/><foreignObject width="154.78125" height="36"><div xmlns="http://www.w3.org/1999/xhtml" style="display: inline-block; white-space: nowrap;"><span class="nodeLabel">entity.launch.py<br />backend entity launch</span></div></foreignObject></g></g><g class="node default tirrexNode flowchart-label" id="flowchart-simulator_launch-4" data-node="true" data-id="simulator_launch" transform="translate(364.0859375, 241.75)"><rect class="basic label-container" style="" rx="0" ry="0" x="-75.984375" y="-16.5" width="151.96875" height="33"/><g class="label" style="" transform="translate(-68.484375, -9)"><rect/><foreignObject width="136.96875" height="18"><div xmlns="http://www.w3.org/1999/xhtml" style="display: inline-block; white-space: nowrap;"><span class="nodeLabel">simulator.launch.py</span></div></foreignObject></g></g><g class="node default tirrexNode flowchart-label" id="flowchart-robot_launch-5" data-node="true" data-id="robot_launch" transform="translate(364.0859375, 77.25)"><rect class="basic label-container" style="" rx="0" ry="0" x="-82.6640625" y="-16.5" width="165.328125" height="33"/><g class="label" style="" transform="translate(-75.1640625, -9)"><rect/><foreignObject width="150.328125" height="18"><div xmlns="http://www.w3.org/1999/xhtml" style="display: inline-block; white-space: nowrap;"><span class="nodeLabel">robot/robot.launch.py</span></div></foreignObject></g></g><g class="node default config flowchart-label" id="flowchart-mode-0" data-node="true" data-id="mode" transform="translate(103.2109375, 138.75)"><rect class="basic label-container" style="" rx="0" ry="0" x="-27.515625" y="-16.5" width="55.03125" height="33"/><g class="label" style="" transform="translate(-20.015625, -9)"><rect/><foreignObject width="40.03125" height="18"><div xmlns="http://www.w3.org/1999/xhtml" style="display: inline-block; white-space: nowrap;"><span class="nodeLabel">mode</span></div></foreignObject></g></g><g class="node default config flowchart-label" id="flowchart-simulation_yaml-1" data-node="true" data-id="simulation_yaml" transform="translate(103.2109375, 221.75)"><rect class="basic label-container" style="" rx="0" ry="0" x="-62.6328125" y="-16.5" width="125.265625" height="33"/><g class="label" style="" transform="translate(-55.1328125, -9)"><rect/><foreignObject width="110.265625" height="18"><div xmlns="http://www.w3.org/1999/xhtml" style="display: inline-block; white-space: nowrap;"><span class="nodeLabel">simulation.yaml</span></div></foreignObject></g></g><g class="node default config flowchart-label" id="flowchart-anchor-2" data-node="true" data-id="anchor" transform="translate(103.2109375, 304.75)"><rect class="basic label-container" style="" rx="0" ry="0" x="-78.2109375" y="-16.5" width="156.421875" height="33"/><g class="label" style="" transform="translate(-70.7109375, -9)"><rect/><foreignObject width="141.421875" height="18"><div xmlns="http://www.w3.org/1999/xhtml" style="display: inline-block; white-space: nowrap;"><span class="nodeLabel">wgs84_anchor.yaml</span></div></foreignObject></g></g><g class="node default config flowchart-label" id="flowchart-robot_config-3" data-node="true" data-id="robot_config" transform="translate(103.2109375, 55.75)"><rect class="basic label-container" style="" rx="0" ry="0" x="-73.765625" y="-16.5" width="147.53125" height="33"/><g class="label" style="" transform="translate(-66.265625, -9)"><rect/><foreignObject width="132.53125" height="18"><div xmlns="http://www.w3.org/1999/xhtml" style="display: inline-block; white-space: nowrap;"><span class="nodeLabel">robot configuration</span></div></foreignObject></g></g></g></g></g></svg>